<mxfile host="65bd71144e">
    <diagram id="lTH1zkgxuI_owB1XdZWy" name="PÃ¡gina-1">
        <mxGraphModel dx="637" dy="397" grid="1" gridSize="10" guides="1" tooltips="1" connect="1" arrows="1" fold="1" page="1" pageScale="1" pageWidth="827" pageHeight="1169" math="0" shadow="0">
            <root>
                <mxCell id="0"/>
                <mxCell id="1" parent="0"/>
                <mxCell id="2" value="INICIO" style="rounded=1;whiteSpace=wrap;html=1;fillColor=#1ba1e2;fontColor=#ffffff;strokeColor=#006EAF;" vertex="1" parent="1">
                    <mxGeometry x="250" y="10" width="110" height="30" as="geometry"/>
                </mxCell>
                <mxCell id="3" value="" style="endArrow=classic;html=1;" edge="1" parent="1">
                    <mxGeometry width="50" height="50" relative="1" as="geometry">
                        <mxPoint x="304.5" y="40" as="sourcePoint"/>
                        <mxPoint x="304.5" y="100" as="targetPoint"/>
                    </mxGeometry>
                </mxCell>
                <mxCell id="4" value="X" style="shape=parallelogram;perimeter=parallelogramPerimeter;whiteSpace=wrap;html=1;fixedSize=1;fillColor=#d80073;fontColor=#ffffff;strokeColor=#A50040;" vertex="1" parent="1">
                    <mxGeometry x="240" y="100" width="125" height="40" as="geometry"/>
                </mxCell>
                <mxCell id="5" value="" style="endArrow=classic;html=1;" edge="1" parent="1">
                    <mxGeometry width="50" height="50" relative="1" as="geometry">
                        <mxPoint x="304.5" y="140" as="sourcePoint"/>
                        <mxPoint x="304.5" y="200" as="targetPoint"/>
                    </mxGeometry>
                </mxCell>
                <mxCell id="6" value="r=x%2" style="rounded=0;whiteSpace=wrap;html=1;fillColor=#e3c800;fontColor=#000000;strokeColor=#B09500;" vertex="1" parent="1">
                    <mxGeometry x="240" y="200" width="120" height="40" as="geometry"/>
                </mxCell>
                <mxCell id="7" value="" style="endArrow=classic;html=1;" edge="1" parent="1">
                    <mxGeometry width="50" height="50" relative="1" as="geometry">
                        <mxPoint x="304.5" y="240" as="sourcePoint"/>
                        <mxPoint x="305" y="310" as="targetPoint"/>
                    </mxGeometry>
                </mxCell>
                <mxCell id="13" value="" style="endArrow=none;html=1;" edge="1" parent="1" target="8">
                    <mxGeometry width="50" height="50" relative="1" as="geometry">
                        <mxPoint x="300" y="360" as="sourcePoint"/>
                        <mxPoint x="350" y="310" as="targetPoint"/>
                    </mxGeometry>
                </mxCell>
                <mxCell id="8" value="r==0" style="rhombus;whiteSpace=wrap;html=1;fillColor=#6d8764;fontColor=#ffffff;strokeColor=#3A5431;" vertex="1" parent="1">
                    <mxGeometry x="267.5" y="310" width="75" height="90" as="geometry"/>
                </mxCell>
                <mxCell id="14" value="" style="endArrow=classic;html=1;" edge="1" parent="1">
                    <mxGeometry width="50" height="50" relative="1" as="geometry">
                        <mxPoint x="342.5" y="354.5" as="sourcePoint"/>
                        <mxPoint x="480" y="355" as="targetPoint"/>
                    </mxGeometry>
                </mxCell>
                <mxCell id="15" value="" style="endArrow=classic;html=1;" edge="1" parent="1">
                    <mxGeometry width="50" height="50" relative="1" as="geometry">
                        <mxPoint x="270" y="354.5" as="sourcePoint"/>
                        <mxPoint x="130" y="354.5" as="targetPoint"/>
                    </mxGeometry>
                </mxCell>
                <mxCell id="16" value="" style="endArrow=classic;html=1;" edge="1" parent="1">
                    <mxGeometry width="50" height="50" relative="1" as="geometry">
                        <mxPoint x="140" y="360" as="sourcePoint"/>
                        <mxPoint x="140" y="440" as="targetPoint"/>
                    </mxGeometry>
                </mxCell>
                <mxCell id="17" value="" style="endArrow=classic;html=1;" edge="1" parent="1">
                    <mxGeometry width="50" height="50" relative="1" as="geometry">
                        <mxPoint x="470" y="360" as="sourcePoint"/>
                        <mxPoint x="470" y="440" as="targetPoint"/>
                    </mxGeometry>
                </mxCell>
                <mxCell id="19" value="rta=&quot;impar&quot;" style="whiteSpace=wrap;html=1;aspect=fixed;fillColor=#fa6800;fontColor=#000000;strokeColor=#C73500;" vertex="1" parent="1">
                    <mxGeometry x="100" y="440" width="90" height="90" as="geometry"/>
                </mxCell>
                <mxCell id="20" value="rta=&quot;par&quot;" style="whiteSpace=wrap;html=1;aspect=fixed;fillColor=#fa6800;fontColor=#000000;strokeColor=#C73500;" vertex="1" parent="1">
                    <mxGeometry x="420" y="440" width="90" height="90" as="geometry"/>
                </mxCell>
                <mxCell id="21" value="" style="endArrow=classic;html=1;" edge="1" parent="1">
                    <mxGeometry width="50" height="50" relative="1" as="geometry">
                        <mxPoint x="144.5" y="530" as="sourcePoint"/>
                        <mxPoint x="145" y="600" as="targetPoint"/>
                    </mxGeometry>
                </mxCell>
                <mxCell id="22" value="" style="endArrow=classic;html=1;" edge="1" parent="1">
                    <mxGeometry width="50" height="50" relative="1" as="geometry">
                        <mxPoint x="470" y="530" as="sourcePoint"/>
                        <mxPoint x="470" y="600" as="targetPoint"/>
                    </mxGeometry>
                </mxCell>
                <mxCell id="23" value="" style="endArrow=none;html=1;" edge="1" parent="1">
                    <mxGeometry width="50" height="50" relative="1" as="geometry">
                        <mxPoint x="150" y="600" as="sourcePoint"/>
                        <mxPoint x="470" y="600" as="targetPoint"/>
                    </mxGeometry>
                </mxCell>
                <mxCell id="24" value="" style="endArrow=classic;html=1;" edge="1" parent="1">
                    <mxGeometry width="50" height="50" relative="1" as="geometry">
                        <mxPoint x="310" y="600" as="sourcePoint"/>
                        <mxPoint x="310" y="682" as="targetPoint"/>
                    </mxGeometry>
                </mxCell>
                <mxCell id="25" value="rta" style="shape=document;whiteSpace=wrap;html=1;boundedLbl=1;fillColor=#6d8764;fontColor=#ffffff;strokeColor=#3A5431;" vertex="1" parent="1">
                    <mxGeometry x="272.5" y="680" width="70" height="60" as="geometry"/>
                </mxCell>
                <mxCell id="26" value="" style="endArrow=classic;html=1;" edge="1" parent="1">
                    <mxGeometry width="50" height="50" relative="1" as="geometry">
                        <mxPoint x="310" y="730" as="sourcePoint"/>
                        <mxPoint x="310" y="780" as="targetPoint"/>
                    </mxGeometry>
                </mxCell>
                <mxCell id="27" value="FIN" style="rounded=1;whiteSpace=wrap;html=1;fillColor=#76608a;fontColor=#ffffff;strokeColor=#432D57;" vertex="1" parent="1">
                    <mxGeometry x="247.5" y="780" width="120" height="30" as="geometry"/>
                </mxCell>
            </root>
        </mxGraphModel>
    </diagram>
</mxfile>